<?xml version="1.0" standalone="no"?>
<!DOCTYPE svg PUBLIC "-//W3C//DTD SVG 20010904//EN"
 "http://www.w3.org/TR/2001/REC-SVG-20010904/DTD/svg10.dtd">
<svg version="1.0" xmlns="http://www.w3.org/2000/svg"
 width="512.000000pt" height="512.000000pt" viewBox="0 0 512.000000 512.000000"
 preserveAspectRatio="xMidYMid meet">

<g transform="translate(0.000000,512.000000) scale(0.100000,-0.100000)"
fill="#000000" stroke="none">
<path d="M572 5109 c-279 -47 -519 -292 -562 -575 -7 -47 -10 -687 -8 -2019
l3 -1950 28 -80 c79 -223 229 -373 452 -452 l80 -28 1995 0 1995 0 80 28 c231
82 390 248 462 482 17 57 18 148 18 2050 l0 1990 -28 80 c-79 223 -229 373
-452 452 l-80 28 -1965 1 c-1109 1 -1988 -2 -2018 -7z m3524 -1330 c33 -20 64
-72 64 -107 0 -26 -498 -2229 -512 -2265 -24 -62 -116 -107 -182 -88 -19 5
-208 126 -419 270 -212 144 -388 261 -392 261 -3 0 -88 -78 -188 -173 -231
-219 -228 -217 -288 -217 -42 0 -55 5 -84 33 -30 29 -47 72 -171 437 -75 223
-142 410 -148 417 -6 6 -180 57 -386 113 -338 91 -378 104 -402 131 -18 18
-28 40 -28 59 0 71 -40 55 1240 516 652 234 1291 464 1420 511 129 47 267 96
305 109 78 26 120 25 171 -7z"/>
<path d="M2736 2895 c-446 -256 -813 -471 -818 -477 -4 -7 -8 -25 -8 -39 0
-34 215 -662 228 -667 13 -4 16 14 42 243 12 99 23 190 26 202 3 15 236 212
692 584 378 309 690 567 694 573 14 20 3 41 -22 43 -17 2 -278 -143 -834 -462z"/>
</g>
</svg>
