<?xml version="1.0" standalone="no"?>
<!DOCTYPE svg PUBLIC "-//W3C//DTD SVG 20010904//EN"
 "http://www.w3.org/TR/2001/REC-SVG-20010904/DTD/svg10.dtd">
<svg version="1.0" xmlns="http://www.w3.org/2000/svg"
 width="512.000000pt" height="512.000000pt" viewBox="0 0 512.000000 512.000000"
 preserveAspectRatio="xMidYMid meet">

<g transform="translate(0.000000,512.000000) scale(0.100000,-0.100000)"
fill="#000000" stroke="none">
<path d="M770 5110 c-124 -15 -286 -47 -340 -66 -8 -3 35 -23 95 -44 1021
-359 1824 -1530 2069 -3015 24 -142 56 -410 56 -461 l0 -24 -465 -2 -465 -3
747 -748 748 -747 750 750 750 750 -468 0 c-393 0 -467 2 -467 14 0 34 -22
233 -41 361 -123 861 -431 1626 -895 2225 -109 141 -375 411 -506 514 -330
259 -676 417 -1058 481 -113 19 -404 28 -510 15z"/>
</g>
</svg>
